/* XPM */
static char * card_cf_xpm[] = {
"36 24 193 2",
"  	c None",
". 	c #000000",
"+ 	c #DFDFDF",
"@ 	c #A6A6A6",
"# 	c #B0A99B",
"$ 	c #F3D08D",
"% 	c #F5DAA5",
"& 	c #F5D9A3",
"* 	c #F5D8A1",
"= 	c #F4D59A",
"- 	c #B69C5E",
"; 	c #0A0B0A",
"> 	c #828182",
", 	c #040000",
"' 	c #3A120C",
") 	c #040101",
"! 	c #060401",
"~ 	c #9B6C11",
"{ 	c #EAAF3C",
"] 	c #EAAF3E",
"^ 	c #EAAD38",
"/ 	c #E9AA31",
"( 	c #E9AA2F",
"_ 	c #E9AB33",
": 	c #E09C18",
"< 	c #C38815",
"[ 	c #866D29",
"} 	c #070707",
"| 	c #110403",
"1 	c #892718",
"2 	c #0C0302",
"3 	c #0A0801",
"4 	c #B88014",
"5 	c #EAAE3A",
"6 	c #DD9917",
"7 	c #69490B",
"8 	c #533A09",
"9 	c #503708",
"0 	c #8B610F",
"a 	c #EBB03F",
"b 	c #BC8314",
"c 	c #EDB955",
"d 	c #866D2A",
"e 	c #0B0300",
"f 	c #3C110C",
"g 	c #060201",
"h 	c #110E04",
"i 	c #D29216",
"j 	c #CA8D16",
"k 	c #432E07",
"l 	c #CC8E16",
"m 	c #966810",
"n 	c #3D2B07",
"o 	c #E7A21D",
"p 	c #C78A15",
"q 	c #E9AC35",
"r 	c #070907",
"s 	c #000100",
"t 	c #131213",
"u 	c #262625",
"v 	c #030303",
"w 	c #181305",
"x 	c #E6A018",
"y 	c #4C3508",
"z 	c #A67412",
"A 	c #E8A72A",
"B 	c #B57E13",
"C 	c #856B28",
"D 	c #151515",
"E 	c #737273",
"F 	c #0C0D0C",
"G 	c #1D1706",
"H 	c #E8A626",
"I 	c #EAAC36",
"J 	c #473107",
"K 	c #3F2C07",
"L 	c #3C2906",
"M 	c #79540D",
"N 	c #896C2A",
"O 	c #070807",
"P 	c #111011",
"Q 	c #7A787A",
"R 	c #0E100E",
"S 	c #231B07",
"T 	c #E7A421",
"U 	c #D49316",
"V 	c #E49E18",
"W 	c #E9A92D",
"X 	c #866C29",
"Y 	c #0E0E0E",
"Z 	c #838083",
"` 	c #101210",
" .	c #261D07",
"..	c #876C2C",
"+.	c #070909",
"@.	c #111111",
"#.	c #808183",
"$.	c #0D100D",
"%.	c #1F1807",
"&.	c #C59334",
"*.	c #71551E",
"=.	c #72551E",
"-.	c #CD9936",
";.	c #A67C2C",
">.	c #76581F",
",.	c #826122",
"'.	c #7E5E21",
").	c #6F531D",
"!.	c #B98623",
"~.	c #896D2C",
"{.	c #07090A",
"].	c #131513",
"^.	c #1A1405",
"/.	c #E7A31F",
"(.	c #513D14",
"_.	c #231A09",
":.	c #2B200B",
"<.	c #664C1B",
"[.	c #5C4518",
"}.	c #0E0A03",
"|.	c #3D2D10",
"1.	c #251C09",
"2.	c #3E2E10",
"3.	c #392908",
"4.	c #141414",
"5.	c #4D4D4D",
"6.	c #080A08",
"7.	c #151004",
"8.	c #392B0F",
"9.	c #3B2C0F",
"0.	c #604819",
"a.	c #5A4318",
"b.	c #120D04",
"c.	c #836222",
"d.	c #A0782A",
"e.	c #37290E",
"f.	c #4A360E",
"g.	c #856A29",
"h.	c #050605",
"i.	c #0E0F0E",
"j.	c #0C100C",
"k.	c #080908",
"l.	c #0F0D04",
"m.	c #392B0E",
"n.	c #413011",
"o.	c #AD812D",
"p.	c #B4872F",
"q.	c #5D4618",
"r.	c #8A6724",
"s.	c #856323",
"t.	c #1B1407",
"u.	c #B7892F",
"v.	c #404140",
"w.	c #848184",
"x.	c #7C7879",
"y.	c #8E8D8E",
"z.	c #4F473A",
"A.	c #AA7612",
"B.	c #443311",
"C.	c #2E230C",
"D.	c #382A0F",
"E.	c #5E4619",
"F.	c #5B4418",
"G.	c #211808",
"H.	c #191306",
"I.	c #543F16",
"J.	c #C49234",
"K.	c #322B1C",
"L.	c #4F442D",
"M.	c #342F25",
"N.	c #151614",
"O.	c #0D0B08",
"P.	c #89600F",
"Q.	c #9F772A",
"R.	c #3A2B0F",
"S.	c #B1842E",
"T.	c #4E3A14",
"U.	c #AA7F2D",
"V.	c #423111",
"W.	c #73561E",
"X.	c #866B29",
"Y.	c #212323",
"Z.	c #222320",
"`.	c #1D1D1B",
" +	c #181818",
".+	c #1B1815",
"++	c #72510F",
"@+	c #E7A119",
"#+	c #E7A11B",
"$+	c #DE9A17",
"%+	c #DF9B17",
"&+	c #695629",
"*+	c #060709",
"                                                                        ",
"                                                                        ",
"                                                                        ",
"                            . . . . . . . . . . . . . . . . . . .       ",
"                          . + @ @ @ @ # $ % & & & & & & & * * = - ;     ",
"                          . > . , ' ) ! ~ { ] ^ / ( ( _ { { : < [ }     ",
"                          . > . | 1 2 3 4 5 ] 6 7 8 9 0 / a b c d }     ",
"                          . > . e f g h i { ] j k l m n o a p q [ r     ",
"                          . > s t u v w x ^ ] p y : z k x ] A B C r     ",
"                          . > . D E F G H I 5 l J K L M l { { { N O     ",
"                          . > . P Q R S I 5 / T U l 6 : V W ^ ] X r     ",
"                          . > . Y Z `  .5 ] { ] ] { ] ] ] ] ] ] ..+.    ",
"                          . > . @.#.$.%._ ] &.*.=.-.;.>.,.'.).!.~.{.    ",
"                          . > . ].> R ^./.] (._.:.<.[.}.|.1.2.3.~.{.    ",
"                          . > . 4.5.6.7.6 { 8.9.0.).a.b.c.d.e.f.g.{.    ",
"                          . > h.i.j.k.l.p 5 m.n.o.p.q.}.r.s.t.u.X {.    ",
"                          . > v.w.x.y.z.A.] B.C.D.E.F.G.-.H.I.J.C {.    ",
"                          . > K.L.M.N.O.P.] Q.R.2.S.'.T.U.e.V.W.X.{.    ",
"                          . > Y.Z.`. +.+++@+#+$+%+x x x x x V V &+*+    ",
"                            . . . . . . . . . . . . . . . . . . .       ",
"                                                                        ",
"                                                                        ",
"                                                                        ",
"                                                                        "};
