/* XPM */
static char * card_ms_xpm[] = {
"36 24 112 2",
"  	c None",
". 	c #000000",
"+ 	c #A7A9CC",
"@ 	c #9C9CBC",
"# 	c #9D9EBD",
"$ 	c #9A9CBA",
"% 	c #9E9FBF",
"& 	c #A7A7CA",
"* 	c #A7A8CE",
"= 	c #A8A8CF",
"- 	c #A8A9CF",
"; 	c #A8A9CE",
"> 	c #A8A9CC",
", 	c #A8A7CB",
"' 	c #A8A8CA",
") 	c #A9A8CB",
"! 	c #A9A9CD",
"~ 	c #A9A8CC",
"{ 	c #A8A8CD",
"] 	c #A0A0C0",
"^ 	c #A9AACE",
"/ 	c #7979AC",
"( 	c #7A7AAD",
"_ 	c #797BAE",
": 	c #7B7EB0",
"< 	c #8082B9",
"[ 	c #8484BD",
"} 	c #8486BD",
"| 	c #7576A7",
"1 	c #5E5F87",
"2 	c #595C81",
"3 	c #7071A1",
"4 	c #6C6E9B",
"5 	c #5A5B83",
"6 	c #595B82",
"7 	c #6A6A8F",
"8 	c #ABADD2",
"9 	c #8183B8",
"0 	c #7D7DB4",
"a 	c #8182B9",
"b 	c #8485BC",
"c 	c #787AAD",
"d 	c #5E6089",
"e 	c #5D6088",
"f 	c #7072A2",
"g 	c #6B6C9A",
"h 	c #5D5D86",
"i 	c #5E608A",
"j 	c #6B6B91",
"k 	c #ABACD2",
"l 	c #7D7FB4",
"m 	c #646590",
"n 	c #565880",
"o 	c #61628E",
"p 	c #7E7EB4",
"q 	c #7B7DB2",
"r 	c #6E709D",
"s 	c #6E6FA0",
"t 	c #7072A5",
"u 	c #6D6FA2",
"v 	c #68699C",
"w 	c #6A6B9A",
"x 	c #73749A",
"y 	c #ABABD2",
"z 	c #8182B7",
"A 	c #6D6E9C",
"B 	c #62618D",
"C 	c #6F6F9D",
"D 	c #8182B8",
"E 	c #8485BD",
"F 	c #8385BB",
"G 	c #8082B7",
"H 	c #7F81B8",
"I 	c #7F80B7",
"J 	c #7F81B6",
"K 	c #7D7EA4",
"L 	c #AAAACD",
"M 	c #8081B6",
"N 	c #7E80B5",
"O 	c #8283B9",
"P 	c #8181B8",
"Q 	c #8183B9",
"R 	c #8284BA",
"S 	c #8384BA",
"T 	c #7C7CA7",
"U 	c #9EA1C2",
"V 	c #5B5D85",
"W 	c #595A81",
"X 	c #666692",
"Y 	c #535980",
"Z 	c #6B6E9C",
"` 	c #696997",
" .	c #6A6B98",
"..	c #696C98",
"+.	c #6E6F9C",
"@.	c #7376A7",
"#.	c #6A6F9D",
"$.	c #686C9B",
"%.	c #74739C",
"&.	c #34344A",
"*.	c #333449",
"=.	c #686B98",
"-.	c #6D6B9A",
";.	c #70719E",
">.	c #7B7AAF",
",.	c #888AC2",
"'.	c #8586BB",
").	c #8586BC",
"!.	c #8587BD",
"~.	c #8688BF",
"{.	c #8486BC",
"].	c #7E7DA9",
"                                                                        ",
"                                                                        ",
"                                                                        ",
"                                                                        ",
"                                                                        ",
"                                                                        ",
"                                                                        ",
"                          . . . . . . . . . . . . . . . . . . . .       ",
"                        . + @ # $ % & * = = - ; > , ' ) ! ~ ) { ] .     ",
"                        . ^ / ( _ : < [ } } } } } | 1 2 3 4 5 6 7 .     ",
"                        . 8 } 9 0 a b b } } } } } c d e f g h i j .     ",
"                        . k l m n o p b } } } } } q r s t u v w x .     ",
"                        . y z A B C D E } } } } } F G D < H I J K .     ",
"                        . L M N O N P b } } } } } Q R S F R R S T .     ",
"                        . U V W X Y Z b } } } } } `  ...+.@.#.$.%..     ",
"                          &.*.=.-.;.>.,.,.,.,.,.,.'.b ).!.~.{.S ]..     ",
"                              . . . . . . . . . . . . . . . . . .       ",
"                                                                        ",
"                                                                        ",
"                                                                        ",
"                                                                        ",
"                                                                        ",
"                                                                        ",
"                                                                        "};
