/* XPM */
static char * card_sm_xpm[] = {
"36 24 75 1",
" 	c None",
".	c #000000",
"+	c #1D1C1B",
"@	c #6E6C63",
"#	c #53524B",
"$	c #ECE6D5",
"%	c #B8A04E",
"&	c #E8E2D2",
"*	c #DED5BE",
"=	c #59554E",
"-	c #E2DAC1",
";	c #6C6D63",
">	c #41423F",
",	c #D3C7A4",
"'	c #D0C2A1",
")	c #CEBD85",
"!	c #AE9D68",
"~	c #BBA777",
"{	c #A28447",
"]	c #BFAA80",
"^	c #A18D4E",
"/	c #A18D4B",
"(	c #9F8A47",
"_	c #A08C48",
":	c #A6935D",
"<	c #93793E",
"[	c #69582B",
"}	c #626159",
"|	c #3F3E38",
"1	c #3F4038",
"2	c #69655F",
"3	c #6E6865",
"4	c #706E67",
"5	c #5C5952",
"6	c #262A23",
"7	c #101110",
"8	c #101010",
"9	c #0C0E0C",
"0	c #151712",
"a	c #6D6B65",
"b	c #666762",
"c	c #72736C",
"d	c #6A6661",
"e	c #2C2D29",
"f	c #131612",
"g	c #101310",
"h	c #111311",
"i	c #20231C",
"j	c #181812",
"k	c #141610",
"l	c #151610",
"m	c #151710",
"n	c #101610",
"o	c #101510",
"p	c #101410",
"q	c #131712",
"r	c #181810",
"s	c #141710",
"t	c #131711",
"u	c #131811",
"v	c #181911",
"w	c #151810",
"x	c #121711",
"y	c #131713",
"z	c #181910",
"A	c #171710",
"B	c #121710",
"C	c #111411",
"D	c #25251D",
"E	c #282821",
"F	c #23241D",
"G	c #23241C",
"H	c #21231C",
"I	c #1C201C",
"J	c #1D201C",
"                                    ",
"                                    ",
"                .............+      ",
"               .@@@@@@@@@@@@@#.     ",
"               .@$%&%&%&%&%*%&=.    ",
"               .@-%*%*%*%*%*%*;>.   ",
"               .@,%'%'%'%'%'%';>.   ",
"               .@))))))!!~%~%~;>.   ",
"               .@%{%{%]))^/(_:;>.   ",
"               .@%<%<%<%<%%%%%;>.   ",
"               .@%[%[%[%[%[%[%;>.   ",
"               .@};;;;;;;;;;;;|>.   ",
"               .@1>>11111>>>>>>>.   ",
"               .@1234511678890>>.   ",
"               .@1abcd11efgghi>>.   ",
"               .@1>>>>11>>>>>>>>.   ",
"               .@>jkkklmnopqkp>>.   ",
"               .@>rspptupppppp>>.   ",
"               .@>vwopxypppppp>>.   ",
"               .@>zAwBpCpppppp>>.   ",
"               .@>DEFGHIIIIIJp>>.   ",
"                ................    ",
"                                    ",
"                                    "};
