/* XPM */
static char * card_sdmmc_xpm[] = {
"36 24 180 2",
"  	c None",
". 	c #000000",
"+ 	c #656566",
"@ 	c #474749",
"# 	c #323234",
"$ 	c #19191A",
"% 	c #010104",
"& 	c #020205",
"* 	c #040408",
"= 	c #1A1A1D",
"- 	c #1D1D20",
"; 	c #282732",
"> 	c #9DB8D2",
", 	c #2C2947",
"' 	c #2E2A49",
") 	c #2F2A4B",
"! 	c #2D2A4B",
"~ 	c #332F4E",
"{ 	c #373252",
"] 	c #6F8295",
"^ 	c #494066",
"/ 	c #68516E",
"( 	c #614F6D",
"_ 	c #564D71",
": 	c #4E466B",
"< 	c #4C446A",
"[ 	c #927A98",
"} 	c #736486",
"| 	c #5E4B6D",
"1 	c #544B71",
"2 	c #614E6F",
"3 	c #5C4F73",
"4 	c #594A6D",
"5 	c #51486E",
"6 	c #4E466A",
"7 	c #686B8C",
"8 	c #8A96B1",
"9 	c #8A7C9D",
"0 	c #5D567B",
"a 	c #80789C",
"b 	c #6A6287",
"c 	c #6C5271",
"d 	c #5A5277",
"e 	c #685272",
"f 	c #625477",
"g 	c #5E4D70",
"h 	c #575075",
"i 	c #696C8E",
"j 	c #97AFCA",
"k 	c #88A2BD",
"l 	c #7F789B",
"m 	c #70688C",
"n 	c #4C4369",
"o 	c #AC897D",
"p 	c #846C78",
"q 	c #4A4268",
"r 	c #514B70",
"s 	c #707293",
"t 	c #ACBCD3",
"u 	c #859FBA",
"v 	c #655D82",
"w 	c #736B8B",
"x 	c #A68680",
"y 	c #9D897C",
"z 	c #675F7E",
"A 	c #514C71",
"B 	c #555276",
"C 	c #8289A6",
"D 	c #AABCD4",
"E 	c #A5BDD2",
"F 	c #A0BAD1",
"G 	c #819CB7",
"H 	c #4E466C",
"I 	c #605B7D",
"J 	c #B1AA97",
"K 	c #BBB48E",
"L 	c #807B8B",
"M 	c #8F80A1",
"N 	c #6E6C90",
"O 	c #848DAC",
"P 	c #A2B2CD",
"Q 	c #B5CADD",
"R 	c #819BB7",
"S 	c #585173",
"T 	c #858979",
"U 	c #BBBC7C",
"V 	c #819997",
"W 	c #A88C92",
"X 	c #A47B91",
"Y 	c #9195B5",
"Z 	c #92ACC7",
"` 	c #99B4CE",
" .	c #AAC1D8",
"..	c #717883",
"+.	c #ADB982",
"@.	c #9BACB5",
"#.	c #9795B0",
"$.	c #B97988",
"%.	c #A099B2",
"&.	c #98B0C5",
"*.	c #A5BAC7",
"=.	c #BCCEE0",
"-.	c #4F5576",
";.	c #64748F",
">.	c #AAAEC2",
",.	c #B0AAC5",
"'.	c #C9C8D8",
").	c #B0BFC2",
"!.	c #C6D5CB",
"~.	c #AAC0AB",
"{.	c #BCC6C3",
"].	c #91ACC7",
"^.	c #564E74",
"/.	c #4E4F73",
"(.	c #627993",
"_.	c #7C8FAD",
":.	c #829BB7",
"<.	c #849E99",
"[.	c #93B36F",
"}.	c #CBBF94",
"|.	c #929EB3",
"1.	c #A8A2BF",
"2.	c #B7C7DB",
"3.	c #524F74",
"4.	c #545176",
"5.	c #505577",
"6.	c #5D7794",
"7.	c #7A95AF",
"8.	c #537756",
"9.	c #9F966E",
"0.	c #93959C",
"a.	c #A489A1",
"b.	c #B1879D",
"c.	c #A0B2CB",
"d.	c #514D72",
"e.	c #505276",
"f.	c #4A5273",
"g.	c #494E70",
"h.	c #667D98",
"i.	c #97A387",
"j.	c #9597A6",
"k.	c #8284A6",
"l.	c #AE7A8E",
"m.	c #C6AEC1",
"n.	c #B2C5DB",
"o.	c #A8C0D7",
"p.	c #647293",
"q.	c #647495",
"r.	c #657696",
"s.	c #657495",
"t.	c #6A7B9B",
"u.	c #768FAC",
"v.	c #768FAD",
"w.	c #767D9F",
"x.	c #9393B2",
"y.	c #A3BBD4",
"z.	c #C2D3E3",
"A.	c #C0D1E2",
"B.	c #7182A2",
"C.	c #7284A4",
"D.	c #7185A4",
"E.	c #708CA8",
"F.	c #89A4C0",
"G.	c #90ABC7",
"H.	c #C7D7E5",
"I.	c #9CB7D2",
"J.	c #84A6A8",
"K.	c #98B3CE",
"L.	c #9CB7D1",
"M.	c #AAC1CF",
"N.	c #D5E1EC",
"O.	c #7C98B4",
"P.	c #7692AE",
"Q.	c #7793AE",
"R.	c #6A86A3",
"S.	c #7792AE",
"T.	c #839FBA",
"U.	c #95B0CA",
"V.	c #000001",
"W.	c #1F262F",
"                                                                        ",
"                                  . . . . . . . . . . . .               ",
"                                . + @ @ @ @ @ @ @ @ @ # # $             ",
"                                . + % % % % % & % % % % * = -           ",
"                                  ; > , , , , ' ) ) ) ) ! ~ { .         ",
"                                . ] ^ ^ ^ ^ ^ ^ ^ ^ ^ ^ / ( _ .         ",
"                                . > : < [ } | 1 2 3 4 5 6 7 8 .         ",
"                                . > 9 0 a b c d e f g h i j k .         ",
"                                . > l m ^ n o p ^ q r s t > u .         ",
"                                . > 5 v w x y z A B C D E F G .         ",
"                                . > H I J K L M N O P > Q > R .         ",
"                                . > S T U V W X Y Z ` >  .> R .         ",
"                                . > ..+.@.#.$.%.&.*.> > =.> R .         ",
"                                . > -.;.>.,.'.).!.~.{.]. .> R .         ",
"                                . > ^./.(._.:.<.[.}.|.1.2.> R .         ",
"                                . > 3.4.5.6.7.8.9.0.a.b.c.> R .         ",
"                                . > d.e.f.g.h.i.j.k.l.m.n.o.R .         ",
"                                . > p.q.r.s.t.u.v.w.x.y.z.A.R .         ",
"                                . > B.B.C.C.D.E.F.G.> > H.> R .         ",
"                                . > > I.J.K.L.> > M.> > N.> R .         ",
"                                . > O.P.Q.Q.R.S.T.U.> > =.> R .         ",
"                                  . . . . . . . . . V.V.V.V.W.          ",
"                                                                        ",
"                                                                        "};
