/* XPM */
static char * cdrom_xpm[] = {
"36 24 153 2",
"  	c None",
". 	c #000000",
"+ 	c #8C8C8C",
"@ 	c #BEBEBE",
"# 	c #D3D3D3",
"$ 	c #F6F6F6",
"% 	c #F6F7F7",
"& 	c #D5D5D5",
"* 	c #B4B4B4",
"= 	c #484848",
"- 	c #E9E9E9",
"; 	c #F5F6F6",
"> 	c #F0F0F0",
", 	c #E6E6E6",
"' 	c #E7E8E8",
") 	c #E9E9EA",
"! 	c #EBEBEB",
"~ 	c #ECEDEC",
"{ 	c #F5F5F5",
"] 	c #E8E8E8",
"^ 	c #D2D2D2",
"/ 	c #9D9D9D",
"( 	c #F1F1F1",
"_ 	c #EFEFEF",
": 	c #E5E5E5",
"< 	c #E7E7E6",
"[ 	c #E9EAEA",
"} 	c #ECEBEC",
"| 	c #EDEDED",
"1 	c #EEEFEE",
"2 	c #F1F2F2",
"3 	c #F8F8F8",
"4 	c #E7E7E7",
"5 	c #343434",
"6 	c #5F5F5F",
"7 	c #F3F3F4",
"8 	c #E5E5E6",
"9 	c #EAEAEA",
"0 	c #EFEEEF",
"a 	c #F3F2F2",
"b 	c #F4F4F3",
"c 	c #F6F6F5",
"d 	c #F7F7F7",
"e 	c #D7D7D7",
"f 	c #DBDBDB",
"g 	c #E5E6E6",
"h 	c #E9E8E9",
"i 	c #EBEAEB",
"j 	c #ECECEC",
"k 	c #EDEEED",
"l 	c #EFF0EF",
"m 	c #F1F1F0",
"n 	c #F3F3F2",
"o 	c #F4F4F4",
"p 	c #F8F7F7",
"q 	c #F8F9F8",
"r 	c #FBFBFB",
"s 	c #D1D1D1",
"t 	c #7F7F7F",
"u 	c #E8E7E8",
"v 	c #EAE9EA",
"w 	c #EAEBEB",
"x 	c #DEDEDE",
"y 	c #DFE0DF",
"z 	c #E0E1E0",
"A 	c #E1E2E2",
"B 	c #F7F7F8",
"C 	c #F9F9FA",
"D 	c #FCFCFC",
"E 	c #DDDDDD",
"F 	c #6C6C6C",
"G 	c #CCCDCD",
"H 	c #EAE9E9",
"I 	c #DFDEDE",
"J 	c #878787",
"K 	c #242424",
"L 	c #282828",
"M 	c #8B8C8B",
"N 	c #FAF9FA",
"O 	c #FBFBFC",
"P 	c #FDFDFD",
"Q 	c #F9F9F9",
"R 	c #A5A6A6",
"S 	c #E3E3E3",
"T 	c #EEEEEE",
"U 	c #EAEAE9",
"V 	c #EBECEB",
"W 	c #DFDFDF",
"X 	c #FAF9F9",
"Y 	c #ECECEB",
"Z 	c #B9B9B9",
"` 	c #F0EFF0",
" .	c #E0E0E0",
"..	c #262626",
"+.	c #EBEAEA",
"@.	c #C8C8C8",
"#.	c #ECEDED",
"$.	c #EDEEEE",
"%.	c #E2E1E1",
"&.	c #EEEEED",
"*.	c #EFF0F0",
"=.	c #D6D6D6",
"-.	c #EFEEEE",
";.	c #F3F3F3",
">.	c #E3E4E3",
",.	c #252525",
"'.	c #F0EFEF",
").	c #D2D2D1",
"!.	c #F2F2F1",
"~.	c #EEEFEF",
"{.	c #F2F1F1",
"].	c #F2F3F3",
"^.	c #BBBBBB",
"/.	c #F5F5F6",
"(.	c #F4F3F4",
"_.	c #F6F5F5",
":.	c #F3F4F3",
"<.	c #F2F2F2",
"[.	c #A9A9A9",
"}.	c #252626",
"|.	c #C2C2C2",
"1.	c #E4E4E4",
"2.	c #979797",
"3.	c #A4A4A4",
"4.	c #FAFAFA",
"5.	c #F5F6F5",
"6.	c #E6E5E6",
"7.	c #F4F5F5",
"8.	c #D5D5D6",
"9.	c #3F3F3F",
"0.	c #F0F0EF",
"a.	c #E2E3E2",
"b.	c #E5E6E5",
"c.	c #E8E9E8",
"d.	c #EAEAEB",
"e.	c #F0F1F1",
"f.	c #F3F4F4",
"g.	c #AEAEAE",
"h.	c #757575",
"i.	c #E4E5E5",
"j.	c #E6E6E5",
"k.	c #CECECD",
"l.	c #626262",
"m.	c #EFEFF0",
"n.	c #F0F0F1",
"o.	c #CDCECD",
"p.	c #2F2F2F",
"q.	c #444444",
"r.	c #AFAFAF",
"s.	c #404140",
"t.	c #ACACAC",
"u.	c #BDBCBD",
"v.	c #989898",
"                                                                        ",
"                                        . . . . . . .                   ",
"                                    . + @ # $ % $ & * = .               ",
"                                  = - ; > , ' ) ! ~ { ] ^ .             ",
"                                / ( _ : < ] [ } | 1 > 2 3 4 5           ",
"                              6 ( 7 8 4 - 9 ! | 0 > a b c d e .         ",
"                            . f $ g 4 h i j k l m n o { p q r s .       ",
"                            t $ j u v w ~ x y z A o c B C r D E F       ",
"                          . G $ ] H } | I J K . L M 4 N O P Q E R .     ",
"                          . S T U V | W J .       . + D X l 9 Y Z .     ",
"                          . 3 ` Y T _  .K           ..Q - +.j T @..     ",
"                          . Q #.$.> ( %..           . d ! j &.*.=..     ",
"                          . Q -._ ( ;.>.,.          6 3 j T '.( )..     ",
"                          . 4 > !.;.{ 3 + .       . x 3 ~.> {.].^..     ",
"                          . ^ /.(._.d :.<.[.}.. ..|.3 ].> !.;.1.2..     ",
"                            3.4.5.o - 1.6.( Q 4.Q $ _ > <.:.7.8.9.      ",
"                            . ; 0.a.1.b.4 c.d.j | _ e.<.f.{ 8.g..       ",
"                              h.{ i.j.] - w j &._ e.<.o { , k..         ",
"                                l.$ {.- w j T m.n.a o c =.o.p..         ",
"                                  q.! f.( T 0.( a o : =.r.. .           ",
"                                    . s.t.|.& ^ ^ u.v.q..               ",
"                                        . . . . . . .                   ",
"                                                                        ",
"                                                                        "};
