/* XPM */
static char * disc_bdre_xpm[] = {
"36 24 105 2",
"  	c None",
". 	c #000000",
"+ 	c #0001FF",
"@ 	c #5B5BFF",
"# 	c #8081FF",
"$ 	c #C2C2FF",
"% 	c #8687FF",
"& 	c #4949FF",
"* 	c #000081",
"= 	c #ABABFF",
"- 	c #B9B9FF",
"; 	c #A4A5FF",
"> 	c #A9A9FF",
", 	c #ADADFF",
"' 	c #B2B3FF",
") 	c #1F1FFF",
"! 	c #BBBBFF",
"~ 	c #B4B5FF",
"{ 	c #A2A3FF",
"] 	c #B0B1FF",
"^ 	c #BDBDFF",
"/ 	c #C4C4FF",
"( 	c #00005E",
"_ 	c #0000A9",
": 	c #BFBFFF",
"< 	c #8989FF",
"[ 	c #9091FF",
"} 	c #B6B7FF",
"| 	c #C6C6FF",
"1 	c #CDCDFF",
"2 	c #7F7FFF",
"3 	c #0000E7",
"4 	c #9697FF",
"5 	c #9B9BFF",
"6 	c #9D9DFF",
"7 	c #C9C9FF",
"8 	c #CFCFFF",
"9 	c #9293FF",
"0 	c #0000C1",
"a 	c #7677FF",
"b 	c #0000F4",
"c 	c #00003D",
"d 	c #000046",
"e 	c #CBCBFF",
"f 	c #2F2FFF",
"g 	c #A0A1FF",
"h 	c #9999FF",
"i 	c #AFAFFF",
"j 	c #5253FF",
"k 	c #000043",
"l 	c #6F6FFF",
"m 	c #00003F",
"n 	c #5455FF",
"o 	c #3435FF",
"p 	c #000042",
"q 	c #6263FF",
"r 	c #1213FF",
"s 	c #2B2BFF",
"t 	c #C0C0FF",
"u 	c #000072",
"v 	c #0000D4",
"w 	c #A78661",
"x 	c #A4845E",
"y 	c #A0805C",
"z 	c #9D7E5A",
"A 	c #9A7B58",
"B 	c #977855",
"C 	c #947553",
"D 	c #917251",
"E 	c #8D704F",
"F 	c #8A6D4D",
"G 	c #876A4A",
"H 	c #0000B1",
"I 	c #A78660",
"J 	c #AD906E",
"K 	c #FDFDFC",
"L 	c #EEE8E2",
"M 	c #D8CCBF",
"N 	c #F2EFEB",
"O 	c #000077",
"P 	c #A5855F",
"Q 	c #AC8F6E",
"R 	c #F7F5F2",
"S 	c #AB9072",
"T 	c #000073",
"U 	c #3B3BFF",
"V 	c #AB8E6D",
"W 	c #FDFCFC",
"X 	c #F4F1ED",
"Y 	c #C7B7A4",
"Z 	c #A4835E",
"` 	c #AA8E6D",
" .	c #B0977C",
"..	c #EFEAE5",
"+.	c #A2825E",
"@.	c #9F805B",
"#.	c #9C7C59",
"$.	c #997A56",
"%.	c #957854",
"&.	c #937452",
"*.	c #8F7150",
"=.	c #8C6E4E",
"-.	c #886C4B",
";.	c #85684A",
">.	c #826647",
"                                                                        ",
"                                        . . . . . . .                   ",
"                                    . + @ # $ $ $ % & * .               ",
"                                  * = $ - ; > = , ' $ > # .             ",
"                                ) ! ~ { > > = ] ' ~ - ^ / > (           ",
"                              _ ! ^ { > = = , ' ~ - ^ : $ $ < .         ",
"                            . [ $ ; > > = ] ~ } ! ^ : $ $ | 1 2 .       ",
"                            3 $ ] > = , ' 4 5 5 6 : $ $ 7 1 8 9 0       ",
"                          . a $ > = ] ' 4 b c . d + > e 1 8 | 9 f .     ",
"                          . g ~ = , ' h b .       . + 8 7 } = i j .     ",
"                          . / } i ~ ~ 5 c           k | = = ] ~ l .     ",
"                          . | ' ~ - ! 6 .           . $ , ] ~ } < .     ",
"                          . | ~ ~ ! ^ { m           _ / ] ~ } ! # .     ",
"                          . > - ^ ^ $ / + .       . 4 / ~ - ! ^ n .     ",
"                          . # $ ^ $ $ : ^ o p . k q / ^ - ^ ^ { r .     ",
"                            s e $ : = { { ! | e | $ ~ - ^ : t % u       ",
"                            . $ - g { ; > = = ] . . . . . . . . . . .   ",
"                              v $ { ; > = , ] . w x y z A B C D E F G . ",
"                                H $ ! = , ] ~ . I J K L M B K L N F G . ",
"                                  O , : ! ~ - . P Q R S N B R D E F G . ",
"                                    . T U q % . P V W X Y B W Y Y F G . ",
"                                        . . . . Z ` R  ...B K L N F G . ",
"                                              . +.@.#.$.%.&.*.=.-.;.>.. ",
"                                                . . . . . . . . . . .   "};
