/* XPM */
static char * cdrom_audio_xpm[] = {
"36 24 168 2",
"  	c None",
". 	c #000000",
"+ 	c #8C8C8C",
"@ 	c #BEBEBE",
"# 	c #D3D3D3",
"$ 	c #F6F6F6",
"% 	c #F6F7F7",
"& 	c #D5D5D5",
"* 	c #B4B4B4",
"= 	c #484848",
"- 	c #E9E9E9",
"; 	c #F5F6F6",
"> 	c #F0F0F0",
", 	c #E6E6E6",
"' 	c #E7E8E8",
") 	c #E9E9EA",
"! 	c #EBEBEB",
"~ 	c #ECEDEC",
"{ 	c #F5F5F5",
"] 	c #E8E8E8",
"^ 	c #D2D2D2",
"/ 	c #9D9D9D",
"( 	c #F1F1F1",
"_ 	c #EFEFEF",
": 	c #E5E5E5",
"< 	c #E7E7E6",
"[ 	c #E9EAEA",
"} 	c #ECEBEC",
"| 	c #EDEDED",
"1 	c #EEEFEE",
"2 	c #F1F2F2",
"3 	c #F8F8F8",
"4 	c #E7E7E7",
"5 	c #343434",
"6 	c #5F5F5F",
"7 	c #F3F3F4",
"8 	c #E5E5E6",
"9 	c #EAEAEA",
"0 	c #EFEEEF",
"a 	c #F3F2F2",
"b 	c #F4F4F3",
"c 	c #F6F6F5",
"d 	c #F7F7F7",
"e 	c #D7D7D7",
"f 	c #DBDBDB",
"g 	c #E5E6E6",
"h 	c #E9E8E9",
"i 	c #EBEAEB",
"j 	c #ECECEC",
"k 	c #EDEEED",
"l 	c #EFF0EF",
"m 	c #F1F1F0",
"n 	c #F3F3F2",
"o 	c #F4F4F4",
"p 	c #F8F7F7",
"q 	c #F8F9F8",
"r 	c #FBFBFB",
"s 	c #D1D1D1",
"t 	c #7F7F7F",
"u 	c #E8E7E8",
"v 	c #EAE9EA",
"w 	c #EAEBEB",
"x 	c #DEDEDE",
"y 	c #DFE0DF",
"z 	c #E0E1E0",
"A 	c #E1E2E2",
"B 	c #F7F7F8",
"C 	c #F9F9FA",
"D 	c #FCFCFC",
"E 	c #DDDDDD",
"F 	c #6C6C6C",
"G 	c #CCCDCD",
"H 	c #EAE9E9",
"I 	c #DFDEDE",
"J 	c #878787",
"K 	c #242424",
"L 	c #282828",
"M 	c #8B8C8B",
"N 	c #FAF9FA",
"O 	c #FBFBFC",
"P 	c #FDFDFD",
"Q 	c #F9F9F9",
"R 	c #A5A6A6",
"S 	c #E3E3E3",
"T 	c #EEEEEE",
"U 	c #EAEAE9",
"V 	c #EBECEB",
"W 	c #DFDFDF",
"X 	c #FAF9F9",
"Y 	c #ECECEB",
"Z 	c #B9B9B9",
"` 	c #F0EFF0",
" .	c #E0E0E0",
"..	c #262626",
"+.	c #EBEAEA",
"@.	c #C8C8C8",
"#.	c #ECEDED",
"$.	c #EDEEEE",
"%.	c #E2E1E1",
"&.	c #EEEEED",
"*.	c #F2F2F2",
"=.	c #D6D6D6",
"-.	c #EFEEEE",
";.	c #F3F3F3",
">.	c #E3E4E3",
",.	c #252525",
"'.	c #FAFAFA",
").	c #7A7A7A",
"!.	c #F2F2F1",
"~.	c #808080",
"{.	c #1B1B1B",
"].	c #414141",
"^.	c #5E5E5E",
"/.	c #A0A0A0",
"(.	c #F5F5F6",
"_.	c #F4F3F4",
":.	c #F6F5F5",
"<.	c #F3F4F3",
"[.	c #A9A9A9",
"}.	c #252626",
"|.	c #C2C2C2",
"1.	c #AAAAAA",
"2.	c #2B2B2B",
"3.	c #E4E4E4",
"4.	c #979797",
"5.	c #4B4B4B",
"6.	c #515151",
"7.	c #323232",
"8.	c #A4A4A4",
"9.	c #F5F6F5",
"0.	c #E6E5E6",
"a.	c #3C3C3C",
"b.	c #909090",
"c.	c #505050",
"d.	c #F0F0EF",
"e.	c #E2E3E2",
"f.	c #E5E6E5",
"g.	c #E8E9E8",
"h.	c #EAEAEB",
"i.	c #FEFEFE",
"j.	c #9B9B9B",
"k.	c #333333",
"l.	c #D5D5D6",
"m.	c #D9D9D9",
"n.	c #1C1C1C",
"o.	c #AFAFAF",
"p.	c #757575",
"q.	c #E4E5E5",
"r.	c #E6E6E5",
"s.	c #111111",
"t.	c #656565",
"u.	c #CECECD",
"v.	c #959595",
"w.	c #626262",
"x.	c #F2F1F1",
"y.	c #FFFFFF",
"z.	c #828282",
"A.	c #0D0D0D",
"B.	c #090909",
"C.	c #161616",
"D.	c #606060",
"E.	c #444444",
"F.	c #F3F4F4",
"G.	c #494949",
"H.	c #ACACAC",
"I.	c #404140",
"J.	c #7E7E7E",
"K.	c #D4D4D4",
"                                                                        ",
"                                        . . . . . . .                   ",
"                                    . + @ # $ % $ & * = .               ",
"                                  = - ; > , ' ) ! ~ { ] ^ .             ",
"                                / ( _ : < ] [ } | 1 > 2 3 4 5           ",
"                              6 ( 7 8 4 - 9 ! | 0 > a b c d e .         ",
"                            . f $ g 4 h i j k l m n o { p q r s .       ",
"                            t $ j u v w ~ x y z A o c B C r D E F       ",
"                          . G $ ] H } | I J K . L M 4 N O P Q E R .     ",
"                          . S T U V | W J .       . + D X l 9 Y Z .     ",
"                          . 3 ` Y T _  .K           ..Q - +.j T @..     ",
"                          . Q #.$.> ( %..           . d ! j &.*.=..     ",
"                          . Q -._ ( ;.>.,.          6 '.D P 3 '.Q ).    ",
"                          . 4 > !.;.{ 3 + .       . ] $ ~.{.].^./.$ $   ",
"                          . ^ (._.:.d <.*.[.}.. ..|.P 1.2.3.4.5.6.7.^   ",
"                            8.'.9.o - 3.0.( Q '.Q d D a.b.q P r ^.c.o   ",
"                            . ; d.e.3.f.4 g.h.j | i.j.k.j D l.m.n.o.(   ",
"                              p.{ q.r.] - w { i.i.i.s.t.3 , u.v.k._     ",
"                                w.$ x.- w j y.z.A.B.C.T i.P d s.D.Q     ",
"                                  E.! F.( T y.. G.. . y.z.A.B.C.H.{     ",
"                                    . I.H.|.y.z.A.A.z.y.. G.. . ,       ",
"                                        . . J.*.*.;.{ y.z.A.A.z.y.      ",
"                                                      K.D P P y.        ",
"                                                                        "};
