/* XPM */
static char * disc_dvdrw_plus_xpm[] = {
"36 24 281 2",
"  	c None",
". 	c #000000",
"+ 	c #A5728B",
"@ 	c #CCAFBC",
"# 	c #DDC8D0",
"$ 	c #F8F3F5",
"% 	c #F8F5F6",
"& 	c #F8F3F4",
"* 	c #DFCACF",
"= 	c #C6A1A8",
"- 	c #59363B",
"; 	c #57384D",
"> 	c #EDE4EA",
", 	c #F7F3F6",
"' 	c #F3ECEF",
") 	c #EBE0E4",
"! 	c #ECE2E6",
"~ 	c #EEE4E7",
"{ 	c #EFE6E8",
"] 	c #F0E8E9",
"^ 	c #F7F2F3",
"/ 	c #EDE2E3",
"( 	c #DDC6C9",
"_ 	c #B089AA",
": 	c #F3EEF2",
"< 	c #F2EBF0",
"[ 	c #EADFE6",
"} 	c #ECE1E6",
"| 	c #EDE2E6",
"1 	c #EEE5E8",
"2 	c #F0E6E9",
"3 	c #F1E8EA",
"4 	c #F2EBEB",
"5 	c #F3ECED",
"6 	c #F4EEEF",
"7 	c #F9F6F6",
"8 	c #EDE0E1",
"9 	c #412628",
"0 	c #714B72",
"a 	c #F3EEF3",
"b 	c #F5F0F5",
"c 	c #EAE0E8",
"d 	c #ECE1E8",
"e 	c #EDE4E9",
"f 	c #EEE5E9",
"g 	c #EFE6E9",
"h 	c #F1E8EB",
"i 	c #F2EAEC",
"j 	c #F6EFF0",
"k 	c #F6F1F1",
"l 	c #F8F3F3",
"m 	c #F9F4F5",
"n 	c #E1CCCE",
"o 	c #E1D2E3",
"p 	c #F7F4F7",
"q 	c #EAE0EA",
"r 	c #EBE2EA",
"s 	c #EDE3EB",
"t 	c #EFE5EC",
"u 	c #F0E7EB",
"v 	c #F1EAEC",
"w 	c #F2ECED",
"x 	c #F4EDEE",
"y 	c #F7F2F2",
"z 	c #F9F5F5",
"A 	c #F9F7F6",
"B 	c #FCF9FA",
"C 	c #DCC5C8",
"D 	c #796F8E",
"E 	c #F6F4F7",
"F 	c #EDE8EF",
"G 	c #ECE2ED",
"H 	c #EEE5ED",
"I 	c #EEE6ED",
"J 	c #F0E9ED",
"K 	c #E5D6DE",
"L 	c #E6D8DD",
"M 	c #E7D9DD",
"N 	c #E8DADD",
"O 	c #F9F5F6",
"P 	c #FAF7F8",
"Q 	c #FCFBFB",
"R 	c #E5D4D6",
"S 	c #865159",
"T 	c #C6C9D2",
"U 	c #F5F5F6",
"V 	c #E6E5EA",
"W 	c #EAE6EC",
"X 	c #EEE7F0",
"Y 	c #F0E9F0",
"Z 	c #E5D7E2",
"` 	c #96778B",
" .	c #252223",
"..	c #292626",
"+.	c #9C7A7C",
"@.	c #FBF7F8",
"#.	c #FCFAFB",
"$.	c #FDFCFC",
"%.	c #FAF7F7",
"&.	c #E5D4D7",
"*.	c #BB9098",
"=.	c #DEE4E7",
"-.	c #EBEEF0",
";.	c #E6E9EC",
">.	c #E9EAED",
",.	c #EBEBEE",
"'.	c #DFDAE3",
").	c #947697",
"!.	c #9D7A7E",
"~.	c #F2ECEC",
"{.	c #EFE4E6",
"].	c #F0E7E8",
"^.	c #CAA7AF",
"/.	c #F6F9F9",
"(.	c #EDF1F2",
"_.	c #E8EEEE",
":.	c #EAF0F1",
"<.	c #ECF0F1",
"[.	c #DAE0E5",
"}.	c #232324",
"|.	c #272425",
"1.	c #EEE3E5",
"2.	c #EFE5E7",
"3.	c #F0E7E9",
"4.	c #F2E9EB",
"5.	c #D5BAC1",
"6.	c #F7FAF9",
"7.	c #E8F1ED",
"8.	c #E9F1EE",
"9.	c #ECF3F0",
"0.	c #EDF4F1",
"a.	c #DBE7E2",
"b.	c #F2ECEE",
"c.	c #DFCCD1",
"d.	c #F7FAF8",
"e.	c #EBF2EC",
"f.	c #EDF4ED",
"g.	c #F1F5F0",
"h.	c #E5E9DD",
"i.	c #262523",
"j.	c #625B5E",
"k.	c #F9F6F7",
"l.	c #F0E7EA",
"m.	c #F3EBEE",
"n.	c #F4EDEF",
"o.	c #DCC7CD",
"p.	c #E6ECE1",
"q.	c #F1F3EC",
"r.	c #F4F4EE",
"s.	c #F5F5F0",
"t.	c #F7F5F2",
"u.	c #9D7A98",
"v.	c #E2D9DF",
"w.	c #F9F6F8",
"x.	c #F1EBEE",
"y.	c #F5EEF0",
"z.	c #F5F0F2",
"A.	c #CAABB7",
"B.	c #DBD8C8",
"C.	c #F7F6F3",
"D.	c #F6F3F1",
"E.	c #F9F4F7",
"F.	c #F5F1F6",
"G.	c #EEEEF5",
"H.	c #B69BB2",
"I.	c #262624",
"J.	c #252526",
"K.	c #C8B9CA",
"L.	c #F9F6F9",
"M.	c #F4F0F4",
"N.	c #F3ECF0",
"O.	c #F4EFF1",
"P.	c #F5F0F3",
"Q.	c #EADDE3",
"R.	c #AE7F94",
"S.	c #B89F8F",
"T.	c #FBF8F8",
"U.	c #F7F3F5",
"V.	c #F6F1F5",
"W.	c #EBE3EE",
"X.	c #DDDDEA",
"Y.	c #EBDEEC",
"Z.	c #F4EEED",
"`.	c #F9FAF7",
" +	c #F8FBFA",
".+	c #F7F9FA",
"++	c #F2EBF2",
"@+	c #F3ECF2",
"#+	c #F4EFF3",
"$+	c #F5F1F4",
"%+	c #F6F2F5",
"&+	c #DECCD6",
"*+	c #4D303E",
"=+	c #F7F3F7",
"-+	c #E4DBE9",
";+	c #A8A1AA",
">+	c #8C5792",
",+	c #F5F2F7",
"'+	c #DEDEEB",
")+	c #E7DFEB",
"!+	c #B18F68",
"~+	c #AE8C65",
"{+	c #AA8963",
"]+	c #A78661",
"^+	c #A4845E",
"/+	c #A0805C",
"(+	c #9D7E5A",
"_+	c #9A7B58",
":+	c #977855",
"<+	c #947553",
"[+	c #917251",
"}+	c #8D704F",
"|+	c #8A6D4D",
"1+	c #876A4A",
"2+	c #846748",
"3+	c #4B497A",
"4+	c #F6F3F8",
"5+	c #F5EDF4",
"6+	c #B08E67",
"7+	c #AD8B65",
"8+	c #A98862",
"9+	c #A78660",
"0+	c #AD906E",
"a+	c #FDFDFC",
"b+	c #EEE8E2",
"c+	c #D8CCBF",
"d+	c #E6E0D8",
"e+	c #B49F87",
"f+	c #D6CBBF",
"g+	c #DDD4CA",
"h+	c #A58F77",
"i+	c #E9E3DE",
"j+	c #826648",
"k+	c #523255",
"l+	c #EFE6ED",
"m+	c #AF8E67",
"n+	c #AB8A64",
"o+	c #FFFFFF",
"p+	c #A5855F",
"q+	c #AC8F6E",
"r+	c #AB9072",
"s+	c #F2EFEB",
"t+	c #CABBA9",
"u+	c #CBBDAD",
"v+	c #F1EDE9",
"w+	c #F4F1EE",
"x+	c #C2B3A3",
"y+	c #C7BAAC",
"z+	c #826647",
"A+	c #AE8D65",
"B+	c #AB8E6D",
"C+	c #F4F1ED",
"D+	c #C7B7A4",
"E+	c #AC947A",
"F+	c #E3DBD3",
"G+	c #DDD6CC",
"H+	c #F1EEEB",
"I+	c #A6917A",
"J+	c #AD8C64",
"K+	c #A4835E",
"L+	c #AA8E6D",
"M+	c #B0977C",
"N+	c #EFEAE5",
"O+	c #A48B6E",
"P+	c #F8F7F5",
"Q+	c #C3B4A2",
"R+	c #BCAC9A",
"S+	c #FBFAFA",
"T+	c #876C4E",
"U+	c #AC8B65",
"V+	c #A6855F",
"W+	c #A2825E",
"X+	c #9F805B",
"Y+	c #9C7C59",
"Z+	c #997A56",
"`+	c #957854",
" @	c #937452",
".@	c #8F7150",
"+@	c #8C6E4E",
"@@	c #886C4B",
"#@	c #85684A",
"                                                                        ",
"                                        . . . . . . .                   ",
"                                    . + @ # $ % & * = - .               ",
"                                  ; > , ' ) ! ~ { ] ^ / ( .             ",
"                                _ : < [ } | 1 2 3 4 5 6 7 8 9           ",
"                              0 a b c d e f g h i 5 j k l m n .         ",
"                            . o p q r s t u v w x j k y z A B C .       ",
"                            D E F G H I J K L M N k l O P B Q R S       ",
"                          . T U V W X Y Z `  .. ..+.8 @.#.$.%.&.*..     ",
"                          . =.-.;.>.,.'.)..       . !.Q @.~.{.].^..     ",
"                          . /.(._.:.<.[.}.          |.P 1.2.3.4.5..     ",
"                          . 6.7.8.9.0.a..           . % { 3.4.b.c..     ",
"                          . d.e.e.f.g.h.i.          j.k.l.v m.n.o..     ",
"                          . p.q.r.s.t.7 u..       . v.w.x.' y.z.A..     ",
"                          . B.C.D.l E.F.G.H.I.. J.K.L.M.N.O.P.Q.R..     ",
"                            S.T.U.V.W.X.Y.Z.`. +.+E ++@+#+$+%+&+*+      ",
"                            . =+@+-+X.;+. . . . . . . . . . . . . . .   ",
"                              >+,+'+)+. !+~+{+]+^+/+(+_+:+<+[+}+|+1+2+. ",
"                                3+4+5+. 6+7+8+9+0+a+b+c+d+e+f+g+h+i+j+. ",
"                                  k+l+. m+n+o+p+q+t.r+s+t+u+v+w+x+y+z+. ",
"                                    . . A+o+o+o+B+$.C+D+E+s+F+G+H+I+z+. ",
"                                      . J+8+o+K+L+t.M+N+O+P+Q+R+S+T+z+. ",
"                                      . U+8+V+W+X+Y+Z+`+ @.@+@@@#@z+z+. ",
"                                        . . . . . . . . . . . . . . .   "};
