/* XPM */
static char * disc_hddvdr_xpm[] = {
"36 24 98 2",
"  	c None",
". 	c #000000",
"+ 	c #AF3A88",
"@ 	c #CE6DAE",
"# 	c #D788BD",
"$ 	c #E6B5D6",
"% 	c #D88CBF",
"& 	c #CA61A7",
"* 	c #581D44",
"= 	c #E0A4CD",
"- 	c #E3AED2",
"; 	c #DFA0CA",
"> 	c #E0A3CC",
", 	c #E1A6CD",
"' 	c #E2ABD0",
") 	c #C04497",
"! 	c #E4AFD2",
"~ 	c #E3ACD1",
"{ 	c #DF9FC9",
"] 	c #E2A9CF",
"^ 	c #E4B0D3",
"/ 	c #E7B7D7",
"( 	c #401532",
"_ 	c #75275B",
": 	c #E5B2D4",
"< 	c #DB92C3",
"[ 	c #E7B8D7",
"} 	c #E8BCDA",
"| 	c #D787BC",
"1 	c #9F357B",
"2 	c #DC97C5",
"3 	c #DD9AC7",
"4 	c #DE9CC8",
"5 	c #E7B9D8",
"6 	c #DB94C3",
"7 	c #852C67",
"8 	c #D480B9",
"9 	c #A73782",
"0 	c #290D20",
"a 	c #2F0F25",
"b 	c #E8BBD9",
"c 	c #C44F9D",
"d 	c #DE9DC8",
"e 	c #DD98C6",
"f 	c #E1A8CE",
"g 	c #CD68AB",
"h 	c #2E0F24",
"i 	c #D37CB6",
"j 	c #2B0E21",
"k 	c #CD6AAC",
"l 	c #C654A0",
"m 	c #2C0E23",
"n 	c #D073B1",
"o 	c #BB3E91",
"p 	c #C34C9B",
"q 	c #E6B4D5",
"r 	c #4E193C",
"s 	c #913071",
"t 	c #A29BBE",
"u 	c #9E97B9",
"v 	c #9A93B5",
"w 	c #968EB2",
"x 	c #928AAD",
"y 	c #8E85A9",
"z 	c #8A81A5",
"A 	c #79285E",
"B 	c #A199BC",
"C 	c #A7A0BE",
"D 	c #FDFDFD",
"E 	c #ECEBF1",
"F 	c #D5D2DF",
"G 	c #8C84A8",
"H 	c #897FA4",
"I 	c #521B40",
"J 	c #9F98BA",
"K 	c #A59FBE",
"L 	c #F7F6F9",
"M 	c #A39DBA",
"N 	c #F1F0F5",
"O 	c #8B82A6",
"P 	c #887FA3",
"Q 	c #4F1A3D",
"R 	c #C758A2",
"S 	c #CE6CAD",
"T 	c #BD3F93",
"U 	c #A59DBC",
"V 	c #F3F2F6",
"W 	c #C2BDD0",
"X 	c #8980A4",
"Y 	c #9D95B7",
"Z 	c #A49DBB",
"` 	c #A8A2BD",
" .	c #EDECF1",
"..	c #9991B0",
"+.	c #9B93B5",
"@.	c #928BAE",
"#.	c #8F86AA",
"$.	c #8A82A5",
"                                                                        ",
"                                        . . . . . . .                   ",
"                                    . + @ # $ $ $ % & * .               ",
"                                  * = $ - ; > = , ' $ > # .             ",
"                                ) ! ~ { > > = ] ' ~ - ^ / > (           ",
"                              _ ! ^ { > = = , ' ~ - ^ : $ $ % .         ",
"                            . < $ ; > > = ] ~ ~ ! ^ : $ $ [ } | .       ",
"                            1 $ ] > = , ' 2 3 3 4 : $ $ 5 } } 6 7       ",
"                          . 8 $ > = ] ' 2 9 0 . a + > b } } [ 6 c .     ",
"                          . d ~ = , ' e 9 .       . + } 5 ~ = f g .     ",
"                          . / ~ f ~ ~ 3 0           h [ = = ] ~ i .     ",
"                          . [ ' ~ - ! 4 .           . $ , ] ~ ~ % .     ",
"                          . [ ~ ~ ! ^ { j           _ / ] ~ ~ ! # .     ",
"                          . > - ^ ^ $ / + .       . 2 / ~ - ! ^ k .     ",
"                          . # $ ^ $ $ : ^ l m . h n / ^ - ^ ^ { o .     ",
"                            p b $ : = { { ! [ b [ $ ~ - ^ : q % r       ",
"                            . $ - d { ; > = = ] ' ~ ! ^ . . . . . . .   ",
"                              s $ { ; > = , ] ~ ~ ! ^ . t u v w x y z . ",
"                                A $ ! = , ] ~ ~ - ^ : . B C D E F G H . ",
"                                  I , : ! ~ - ! ^ : { . J K L M N O P . ",
"                                    . Q R n % # # S T . J U D V W X P . ",
"                                        . . . . . . . . Y Z L `  ...P . ",
"                                                      . +.w @.#.$.P P . ",
"                                                        . . . . . . .   "};
