/* XPM */
static char * disc_cdr_xpm[] = {
"36 24 167 2",
"  	c None",
". 	c #000000",
"+ 	c #A29875",
"@ 	c #CAC4B1",
"# 	c #DBD7CA",
"$ 	c #F7F7F4",
"% 	c #F7F7F5",
"& 	c #DDD9CC",
"* 	c #C2BBA5",
"= 	c #554F3A",
"- 	c #EDEBE4",
"; 	c #F2F1ED",
"> 	c #EAE8E1",
", 	c #EBEAE3",
"' 	c #EDEBE5",
") 	c #EEEDE7",
"! 	c #EFEFE8",
"~ 	c #F7F6F2",
"{ 	c #ECEAE3",
"] 	c #DAD6C9",
"^ 	c #AFA78A",
"/ 	c #F3F2EE",
"( 	c #F2F0EB",
"_ 	c #EAE7DF",
": 	c #EBE9E1",
"< 	c #EDECE5",
"[ 	c #EFEDE8",
"} 	c #F0EFE9",
"| 	c #F1F0EB",
"1 	c #F3F3EF",
"2 	c #F9F8F6",
"3 	c #EBE9E2",
"4 	c #3D392A",
"5 	c #71694C",
"6 	c #F5F4F1",
"7 	c #EAE7E1",
"8 	c #EEECE5",
"9 	c #F5F3EF",
"0 	c #F6F5F1",
"a 	c #F7F7F3",
"b 	c #F8F7F5",
"c 	c #DEDBCF",
"d 	c #E1DED4",
"e 	c #EDEAE4",
"f 	c #EEECE7",
"g 	c #EFEEE8",
"h 	c #F2F1EC",
"i 	c #F3F2ED",
"j 	c #F5F4EF",
"k 	c #F9F8F5",
"l 	c #F9F9F6",
"m 	c #FBFBFA",
"n 	c #D9D5C8",
"o 	c #978C66",
"p 	c #ECE9E3",
"q 	c #EEEBE5",
"r 	c #E4E1D7",
"s 	c #E5E3D9",
"t 	c #E6E4DA",
"u 	c #E6E5DC",
"v 	c #F8F8F6",
"w 	c #FAF9F8",
"x 	c #FCFCFB",
"y 	c #E3E0D6",
"z 	c #807757",
"A 	c #D5D2C3",
"B 	c #E5E1D8",
"C 	c #958E78",
"D 	c #252422",
"E 	c #292826",
"F 	c #98937D",
"G 	c #FBF9F8",
"H 	c #FBFBFB",
"I 	c #FDFDFC",
"J 	c #FAF9F7",
"K 	c #B6AF94",
"L 	c #E8E6DD",
"M 	c #F1EFEA",
"N 	c #EEEEE7",
"O 	c #E5E2D8",
"P 	c #99937E",
"Q 	c #EFEEE7",
"R 	c #C6C0AB",
"S 	c #F2F0ED",
"T 	c #E5E3DA",
"U 	c #272624",
"V 	c #EEECE6",
"W 	c #D2CDBD",
"X 	c #EFEFE9",
"Y 	c #F0EFEA",
"Z 	c #E7E4DB",
"` 	c #F1EFE9",
" .	c #DDDACE",
"..	c #F5F4F0",
"+.	c #E8E6DE",
"@.	c #262523",
"#.	c #62605B",
"$.	c #F2F0EC",
"%.	c #DAD6C8",
"&.	c #F4F3EE",
"*.	c #E1E0DA",
"=.	c #F4F2EE",
"-.	c #F4F4F0",
";.	c #C8C2AE",
">.	c #F7F6F4",
",.	c #F6F4F1",
"'.	c #F7F6F3",
").	c #F5F5F1",
"!.	c #F4F3EF",
"~.	c #B3AE9E",
"{.	c #262624",
"].	c #C9C6BA",
"^.	c #E9E6DE",
"/.	c #ABA282",
"(.	c #B5AD92",
"_.	c #FBFAF8",
":.	c #F6F6F2",
"<.	c #DDD9CE",
"[.	c #4B4532",
"}.	c #E7E6DC",
"|.	c #EAE8E0",
"1.	c #ECEBE3",
"2.	c #B1B0AD",
"3.	c #8B815E",
"4.	c #E9E7DF",
"5.	c #ADA7C8",
"6.	c #ADA6C8",
"7.	c #ABA4C6",
"8.	c #A9A2C4",
"9.	c #A8A1C2",
"0.	c #746C4F",
"a.	c #F3F1EE",
"b.	c #B6B0CE",
"c.	c #FDFDFE",
"d.	c #F0EFF5",
"e.	c #A5A5A7",
"f.	c #615E71",
"g.	c #A7A0C2",
"h.	c #514B37",
"i.	c #B5B0CD",
"j.	c #F8F8FA",
"k.	c #57555E",
"l.	c #F4F3F7",
"m.	c #605C6F",
"n.	c #A49DBE",
"o.	c #4C4733",
"p.	c #BCB49B",
"q.	c #CDC8B6",
"r.	c #C9C3B0",
"s.	c #ABA284",
"t.	c #B5AFCD",
"u.	c #F6F5F8",
"v.	c #9D9CA3",
"w.	c #7E7892",
"x.	c #A39DBF",
"y.	c #B5AECD",
"z.	c #63626A",
"A.	c #F1F0F5",
"B.	c #767283",
"C.	c #A39BBE",
"D.	c #ABA5C6",
"E.	c #A9A3C4",
"F.	c #4A4756",
"G.	c #7E7993",
"H.	c #484554",
"I.	c #5E5A6E",
"J.	c #A099BB",
"                                                                        ",
"                                        . . . . . . .                   ",
"                                    . + @ # $ % $ & * = .               ",
"                                  = - $ ; > , ' ) ! ~ { ] .             ",
"                                ^ / ( _ : { < [ } | ; 1 2 3 4           ",
"                              5 / 6 7 3 - 8 ) } ( ; 9 0 a b c .         ",
"                            . d $ > 3 e f g } h i j 0 ~ k l m n .       ",
"                            o $ g p q ) ! r s t u 0 a v w m x y z       ",
"                          . A $ { q [ } B C D . E F 3 G H I J y K .     ",
"                          . L M 8 N } O C .       . P x G h 8 Q R .     ",
"                          . 2 S Q M ( T D           U J - V g M W .     ",
"                          . J X Y ; / Z .           . b ) g ` ;  ..     ",
"                          . J ( ( / ..+.@.          #.2 g M $./ %..     ",
"                          . 3 ; &...~ 2 P .       . *.2 | ; =.-.;..     ",
"                          . ] >.,.'.b ).!.~.{.. U ].2 -.; &...^./..     ",
"                            (._.a 0 - ^.7 / J _.J $ ( ; !.).:.<.[.      ",
"                            . $ h }.^.|.3 1.f g } ( / 2.. . . . . . .   ",
"                              3.~ 4.|.{ - ) g ` ( / !.. 5.5.5.6.7.8.9.. ",
"                                0.$ =.- ) g M S a.9 0 . 5.b.c.d.e.f.g.. ",
"                                  h.) )./ M h / 9 0 _ . 5.i.j.k.l.m.n.. ",
"                                    . o.p.q.& ] ] r.s.. 5.t.c.u.v.w.x.. ",
"                                        . . . . . . . . 5.y.j.z.A.B.C.. ",
"                                                      . D.E.F.G.H.I.J.. ",
"                                                        . . . . . . .   "};
