/* XPM */
static char * removable_1394_xpm[] = {
"36 24 97 2",
"  	c None",
". 	c #000000",
"+ 	c #FFFFFF",
"@ 	c #E7E7E7",
"# 	c #BDBDBD",
"$ 	c #A8A8A8",
"% 	c #FCFCFC",
"& 	c #F9F9FA",
"* 	c #D1BE97",
"= 	c #F9F9F9",
"- 	c #FAF9FA",
"; 	c #D6C4A1",
"> 	c #F9FAF9",
", 	c #F9FAFA",
"' 	c #E1E1E1",
") 	c #FAFAFA",
"! 	c #F8F7F8",
"~ 	c #F4F4F4",
"{ 	c #CCB88F",
"] 	c #CBB78D",
"^ 	c #F3F4F3",
"/ 	c #F4F4F3",
"( 	c #F3F4F4",
"_ 	c #CEBA93",
": 	c #CCB78D",
"< 	c #D3C29F",
"[ 	c #B5B5B5",
"} 	c #8B8B8B",
"| 	c #EEEEEE",
"1 	c #EFEEEE",
"2 	c #D1C1A0",
"3 	c #EEEEEF",
"4 	c #C9B58B",
"5 	c #D7D7D7",
"6 	c #F8F8F8",
"7 	c #F1F1F1",
"8 	c #E9E8E8",
"9 	c #E9E9E9",
"0 	c #E8E8E8",
"a 	c #E9E9E8",
"b 	c #E8E8E9",
"c 	c #C6B188",
"d 	c #C6B187",
"e 	c #E9E8E9",
"f 	c #E8E9E9",
"g 	c #BEBFBF",
"h 	c #F7F7F7",
"i 	c #E3E3E3",
"j 	c #E3E3E2",
"k 	c #E3E2E3",
"l 	c #C3AE84",
"m 	c #CCCDCD",
"n 	c #EBEAEB",
"o 	c #DDDDDD",
"p 	c #DDDEDD",
"q 	c #DEDDDD",
"r 	c #C0AB81",
"s 	c #C1AE85",
"t 	c #DFDFDF",
"u 	c #D2D2D2",
"v 	c #A0741B",
"w 	c #BEBEBE",
"x 	c #DBDBDB",
"y 	c #CDCDCC",
"z 	c #B7B7B7",
"A 	c #999999",
"B 	c #D3D4D3",
"C 	c #E4E4E3",
"D 	c #F0F0F0",
"E 	c #D0CFCF",
"F 	c #B9B9B9",
"G 	c #D8D8D7",
"H 	c #C7C7C6",
"I 	c #F6F6F6",
"J 	c #CACBCA",
"K 	c #6A6A6A",
"L 	c #B4B4B4",
"M 	c #CFCFCF",
"N 	c #C1C1C1",
"O 	c #D2D3D2",
"P 	c #E6E6E6",
"Q 	c #E7E6E6",
"R 	c #D1D1D2",
"S 	c #A7A8A7",
"T 	c #686868",
"U 	c #9D9D9D",
"V 	c #AFAFAE",
"W 	c #B3B3B4",
"X 	c #A9A9A9",
"Y 	c #AAA9A9",
"Z 	c #AAAAA9",
"` 	c #AAA9AA",
" .	c #A9A9AA",
"..	c #A9AAA9",
"+.	c #A9AAAA",
"@.	c #AAAAAA",
"#.	c #999A99",
"                                                                        ",
"                                                                        ",
"                                                                        ",
"                                                                        ",
"                                                                        ",
"                                                                        ",
"                                                                        ",
"                                  . . . . . . . . . . . . . .           ",
"                                . + + + + + + + + + + + + @ # .         ",
"                                $ % & & * & = = & - = ; > , ' .         ",
"                              . ) ! ~ { ~ ] ^ / / ( _ : < / ~ [ .       ",
"                              } ) | | 1 2 | | 3 | | 3 4 | | 1 5 .       ",
"                            . 6 7 8 9 0 a b c d c d e a 0 0 0 f g .     ",
"                            } h i j i i k i l k i l i i i i i i m .     ",
"                          . h n o o o p q p r r r s o o p q o o q [ .   ",
"                          . + + + + + + + + + + + + + + + + + + + @ .   ",
"                          . t u u u u u u u v v v v u u u u u u u w .   ",
"                          . x y z A A A A A A A A A A A A B C D E F .   ",
"                          . G H A . . . . . . . . . . . . f I J K L .   ",
"                          . M N O P P P P P P P P P P Q P R S T U V .   ",
"                          . W X Y Z ` Y Z  . ...`  .+.@.Y @...Y @.#..   ",
"                          . . . . . . . . . . . . . . . . . . . . . .   ",
"                                                                        ",
"                                                                        "};
