/* XPM */
static char * removable_xpm[] = {
"36 24 85 1",
" 	c None",
".	c #000000",
"+	c #FFFFFF",
"@	c #E7E7E7",
"#	c #BDBDBD",
"$	c #A8A8A8",
"%	c #FCFCFC",
"&	c #F9F9FA",
"*	c #F9F9F9",
"=	c #FAF9FA",
"-	c #FAF9F9",
";	c #F9FAF9",
">	c #F9FAFA",
",	c #E1E1E1",
"'	c #FAFAFA",
")	c #F8F7F8",
"!	c #F4F4F4",
"~	c #F3F3F3",
"{	c #F3F4F3",
"]	c #F4F4F3",
"^	c #F3F4F4",
"/	c #F4F3F4",
"(	c #B5B5B5",
"_	c #8B8B8B",
":	c #EEEEEE",
"<	c #EFEEEE",
"[	c #EEEEEF",
"}	c #D7D7D7",
"|	c #F8F8F8",
"1	c #F1F1F1",
"2	c #E9E8E8",
"3	c #E9E9E9",
"4	c #E8E8E8",
"5	c #E9E9E8",
"6	c #E8E8E9",
"7	c #E9E8E9",
"8	c #E8E9E9",
"9	c #BEBFBF",
"0	c #F7F7F7",
"a	c #E3E3E3",
"b	c #E3E3E2",
"c	c #E3E2E3",
"d	c #CCCDCD",
"e	c #EBEAEB",
"f	c #DDDDDD",
"g	c #DDDEDD",
"h	c #DEDDDD",
"i	c #DFDFDF",
"j	c #D2D2D2",
"k	c #BEBEBE",
"l	c #DBDBDB",
"m	c #CDCDCC",
"n	c #B7B7B7",
"o	c #999999",
"p	c #D3D4D3",
"q	c #E4E4E3",
"r	c #F0F0F0",
"s	c #D0CFCF",
"t	c #B9B9B9",
"u	c #D8D8D7",
"v	c #C7C7C6",
"w	c #F6F6F6",
"x	c #CACBCA",
"y	c #6A6A6A",
"z	c #B4B4B4",
"A	c #CFCFCF",
"B	c #C1C1C1",
"C	c #D2D3D2",
"D	c #E6E6E6",
"E	c #E7E6E6",
"F	c #D1D1D2",
"G	c #A7A8A7",
"H	c #686868",
"I	c #9D9D9D",
"J	c #AFAFAE",
"K	c #B3B3B4",
"L	c #A9A9A9",
"M	c #AAA9A9",
"N	c #AAAAA9",
"O	c #AAA9AA",
"P	c #A9A9AA",
"Q	c #A9AAA9",
"R	c #A9AAAA",
"S	c #AAAAAA",
"T	c #999A99",
"                                    ",
"                                    ",
"                                    ",
"                                    ",
"                                    ",
"                                    ",
"                                    ",
"                 ..............     ",
"                .++++++++++++@#.    ",
"                $%&&*&**&=*-;>,.    ",
"               .')!~!{{]]^/!!]!(.   ",
"               _'::<:::[::[:::<}.   ",
"              .|12345635647544489.  ",
"              _0abaacaacaaaaaaaad.  ",
"             .0efffghghhfgffghffh(. ",
"             .+++++++++++++++++++@. ",
"             .ijjjjjjjjjjjjjjjjjjk. ",
"             .lmnoooooooooooopqrst. ",
"             .uvo............8wxyz. ",
"             .ABCDDDDDDDDDDEDFGHIJ. ",
"             .KLMNOMNPPQOPRSMSQMST. ",
"             ...................... ",
"                                    ",
"                                    "};
