/* XPM */
static char * removable_usb_xpm[] = {
"36 24 92 2",
"  	c None",
". 	c #FFFFFF",
"+ 	c #625B81",
"@ 	c #000000",
"# 	c #A39FB2",
"$ 	c #A6A2B8",
"% 	c #BDBBCA",
"& 	c #A7A3B9",
"* 	c #E7E7E7",
"= 	c #BDBDBD",
"- 	c #A8A8A8",
"; 	c #FCFCFC",
"> 	c #F9F9FA",
", 	c #C8C6D3",
"' 	c #E2E0E7",
") 	c #FAFAFA",
"! 	c #FAF9F9",
"~ 	c #F9FAF9",
"{ 	c #F9FAFA",
"] 	c #E1E1E1",
"^ 	c #F8F7F8",
"/ 	c #F4F4F4",
"( 	c #F3F3F3",
"_ 	c #F6F6F6",
": 	c #B5B2C2",
"< 	c #F4F3F4",
"[ 	c #F4F4F3",
"} 	c #B5B5B5",
"| 	c #8B8B8B",
"1 	c #EEEEEE",
"2 	c #EFEEEE",
"3 	c #FBFBFB",
"4 	c #EEEEEF",
"5 	c #D7D7D7",
"6 	c #F8F8F8",
"7 	c #F1F1F1",
"8 	c #E9E8E8",
"9 	c #E9E9E9",
"0 	c #E8E8E8",
"a 	c #E9E9E8",
"b 	c #8D88A2",
"c 	c #86819D",
"d 	c #E9E8E9",
"e 	c #E8E9E9",
"f 	c #BEBFBF",
"g 	c #F7F7F7",
"h 	c #E3E3E3",
"i 	c #E3E3E2",
"j 	c #E3E2E3",
"k 	c #CCCDCD",
"l 	c #EBEAEB",
"m 	c #DDDDDD",
"n 	c #DDDEDD",
"o 	c #DEDDDD",
"p 	c #9591A7",
"q 	c #DFDFDF",
"r 	c #D2D2D2",
"s 	c #BEBEBE",
"t 	c #DBDBDB",
"u 	c #CDCDCC",
"v 	c #B7B7B7",
"w 	c #999999",
"x 	c #D3D4D3",
"y 	c #E4E4E3",
"z 	c #F0F0F0",
"A 	c #D0CFCF",
"B 	c #B9B9B9",
"C 	c #D8D8D7",
"D 	c #C7C7C6",
"E 	c #CACBCA",
"F 	c #6A6A6A",
"G 	c #B4B4B4",
"H 	c #CFCFCF",
"I 	c #C1C1C1",
"J 	c #D2D3D2",
"K 	c #E6E6E6",
"L 	c #E7E6E6",
"M 	c #D1D1D2",
"N 	c #A7A8A7",
"O 	c #686868",
"P 	c #9D9D9D",
"Q 	c #AFAFAE",
"R 	c #B3B3B4",
"S 	c #A9A9A9",
"T 	c #AAA9A9",
"U 	c #AAAAA9",
"V 	c #AAA9AA",
"W 	c #A9A9AA",
"X 	c #A9AAA9",
"Y 	c #A9AAAA",
"Z 	c #AAAAAA",
"` 	c #999A99",
"                                                                        ",
"                                                                        ",
"                                                                        ",
"                                              .                         ",
"                                            . + .                       ",
"                                          . + + + . . .                 ",
"                                        . . . + . + + .                 ",
"                                  @ @ . # $ . + . + + . @ @ @           ",
"                                @ . . . % & . + . + . . . * = @         ",
"                                - ; > > . , ' + + . ) ! ~ { ] @         ",
"                              @ ) ^ / ( _ . : + . _ < / / [ / } @       ",
"                              | ) 1 1 2 1 3 . + . 3 4 1 1 1 2 5 @       ",
"                            @ 6 7 8 9 0 a . b + c . d a 0 0 0 e f @     ",
"                            | g h i h h j . + + + . h h h h h h k @     ",
"                          @ g l m m m n o . p + p . m m n o m m o } @   ",
"                          @ . . . . . . . . . . . . . . . . . . . * @   ",
"                          @ q r r r r r r r r r r r r r r r r r r s @   ",
"                          @ t u v w w w w w w w w w w w w x y z A B @   ",
"                          @ C D w @ @ @ @ @ @ @ @ @ @ @ @ e _ E F G @   ",
"                          @ H I J K K K K K K K K K K L K M N O P Q @   ",
"                          @ R S T U V T U W W X V W Y Z T Z X T Z ` @   ",
"                          @ @ @ @ @ @ @ @ @ @ @ @ @ @ @ @ @ @ @ @ @ @   ",
"                                                                        ",
"                                                                        "};
