/* XPM */
static char * unknown_xpm[] = {
"36 24 3 1",
" 	c None",
".	c #FFFFFF",
"+	c #C00000",
"                                    ",
"                                    ",
"                                    ",
"              ........              ",
"             ..++++++..             ",
"            ..++....++..            ",
"            .++..  ..++.            ",
"            .++.    .++.            ",
"            .++.   ..++.            ",
"            ....  ..++..            ",
"                 ..++..             ",
"                ..++..              ",
"                .++..               ",
"                .++.                ",
"                ....                ",
"                ....                ",
"                .++.                ",
"                .++.                ",
"                .++.                ",
"                ....                ",
"                                    ",
"                                    ",
"                                    ",
"                                    "};
