/* XPM */
static char * wmvolman_master_xpm[] = {
"64 64 9 1",
" 	c None",
".	c #000000",
"+	c #282828",
"@	c #C0C0C0",
"#	c #202020",
"$	c #004941",
"%	c #FFFFFF",
"&	c #86828E",
"*	c #AEAAAE",
"                                                                ",
"                                                                ",
"                                                                ",
"                                                                ",
"    ........................................................    ",
"    .++++++++++++++++++++++++++++++++++++++++++++++++++++++@    ",
"    .++++++++++++++++++++++++++++++++++++++++++++++++++++++@    ",
"    .++#################################################+++@    ",
"    .++##$$$###$$$###$$$###$$$###$$$###$$$###$$$###$$$##+++@    ",
"    .++#$###$#$###$#$###$#$###$#$###$#$###$#$###$#$###$#+++@    ",
"    .++#$###$#$###$#$###$#$###$#$###$#$###$#$###$#$###$#+++@    ",
"    .++##$$$###$$$###$$$###$$$###$$$###$$$###$$$###$$$##+++@    ",
"    .++#$###$#$###$#$###$#$###$#$###$#$###$#$###$#$###$#+++@    ",
"    .++#$###$#$###$#$###$#$###$#$###$#$###$#$###$#$###$#+++@    ",
"    .++##$$$###$$$###$$$###$$$###$$$###$$$###$$$###$$$##+++@    ",
"    .++#################################################+++@    ",
"    .++++++++++++++++++++++++++++++++++++++++++++++++++++++@    ",
"    .++++++++++++++++++++++++++++++++++++++++++++++++++++++@    ",
"    .++++++++++++++++++++++++++++++++++++++++++++++++++++++@    ",
"    .++++++++++++++++++++++++++++++++++++++++++++++++++++++@    ",
"    .++++++++++++++++++++++++++++++++++++++++++++++++++++++@    ",
"    .++++++++++++++++++++++++++++++++++++++++++++++++++++++@    ",
"    .++++++++++++++++++++++++++++++++++++++++++++++++++++++@    ",
"    .++++++++++++++++++++++++++++++++++++++++++++++++++++++@    ",
"    .++++++++++++++++++++++++++++++++++++++++++++++++++++++@    ",
"    .++++++++++++++++++++++++++++++++++++++++++++++++++++++@    ",
"    .++++++++++++++++++++++++++++++++++++++++++++++++++++++@    ",
"    .++++++++++++++++++++++++++++++++++++++++++++++++++++++@    ",
"    .++++++++++++++++++++++++++++++++++++++++++++++++++++++@    ",
"    .++++++++++++++++++++++++++++++++++++++++++++++++++++++@    ",
"    .++++++++++++++++++++++++++++++++++++++++++++++++++++++@    ",
"    .++++++++++++++++++++++++++++++++++++++++++++++++++++++@    ",
"    .++++++++++++++++++++++++++++++++++++++++++++++++++++++@    ",
"    .++++++++++++++++++++++++++++++++++++++++++++++++++++++@    ",
"    .++++++++++++++++++++++++++++++++++++++++++++++++++++++@    ",
"    .++++++++++++++++++++++++++++++++++++++++++++++++++++++@    ",
"    .++++++++++++++++++++++++++++++++++++++++++++++++++++++@    ",
"    .++++++++++++++++++++++++++++++++++++++++++++++++++++++@    ",
"    .++++++++++++++++++++++++++++++++++++++++++++++++++++++@    ",
"    .++++++++++++++++++++++++++++++++++++++++++++++++++++++@    ",
"    .++++++++++++++++++++++++++++++++++++++++++++++++++++++@    ",
"    .++++++++++++++++++++++++++++++++++++++++++++++++++++++@    ",
"    .++++++++++++++++++++++++++++++++++++++++++++++++++++++@    ",
"    @@@@@@@@@@@@@@@@@@@@@@@@@@@@@@@@@@@@@@@@@@@@@@@@@@@@@@@@    ",
"                                                                ",
"                                                                ",
"                                                                ",
"    ........................................................    ",
"    .%%%%%%%%%%%%%%%%%%%%%%%%%%%&%%%%%%%%%%%%&%%%%%%%%%%%%&@    ",
"    .%**************************.%***********.%***********.@    ",
"    .%*********.....************.%******.****.%****.******.@    ",
"    .%********.......***********.%*****..****.%****..*****.@    ",
"    .%***........*****.......***.%****...****.%****...****.@    ",
"    .%***....................***.%***....****.%****....***.@    ",
"    .%***.......*****........***.%****...****.%****...****.@    ",
"    .%***********.......********.%*****..****.%****..*****.@    ",
"    .%************.....*********.%******.****.%****.******.@    ",
"    .%**************************.%***********.%***********.@    ",
"    .&...........................&............&............@    ",
"    @@@@@@@@@@@@@@@@@@@@@@@@@@@@@@@@@@@@@@@@@@@@@@@@@@@@@@@@    ",
"                                                                ",
"                                                                ",
"                                                                ",
"                                                                "};
